<?xml version="1.0" encoding="UTF-8" standalone="no"?>
<svg
   width="100%"
   viewBox="0 0 1568 354"
   version="1.1"
   xmlns="http://www.w3.org/2000/svg">
  <title>Telemachus Reborn</title>
  <style>
    .logo-dark { fill: #40423e; }
    .logo-accent { fill: #5b8d83; }
    @media (prefers-color-scheme: dark) {
      .logo-dark { fill: #e8e8e4; }
    }
  </style>
  <g
     transform="matrix(0.20252393,0,0,-0.20252393,-985.52964,972.71352)"
     class="logo-dark"
     stroke="none">
    <path
       d="m 10437.785,4760.3807 c -44.35,-9.0202 -102.981,-42.846 -130.793,-74.4168 -36.081,-40.591 -70.659,-124.7797 -88.699,-211.9752 -13.531,-63.8932 -15.786,-93.9606 -12.779,-164.619 9.02,-184.1629 65.397,-304.4325 167.626,-353.2921 50.363,-24.0539 143.572,-29.3157 197.693,-11.2752 78.175,25.5573 138.31,112.0011 148.834,212.7269 5.261,46.6044 -0.752,54.1213 -43.598,54.1213 -36.081,0 -48.108,-12.027 -62.39,-60.8865 -22.551,-81.182 -67.652,-122.5247 -132.297,-121.773 -90.202,1.5034 -145.826,79.6786 -165.37,229.264 -9.02,75.1685 2.255,207.4651 24.054,274.365 30.067,92.4573 104.484,148.082 172.887,130.0416 40.591,-11.2753 68.404,-43.5978 87.947,-102.2292 9.021,-28.5641 20.296,-55.6247 24.806,-60.8865 12.027,-15.0337 69.155,-12.027 84.189,4.5101 24.054,27.0607 -11.276,135.3033 -63.142,191.6797 -49.611,53.3696 -133.8,79.6786 -208.968,64.6449 z m 1828.85,-12.7786 c -84.941,-30.8191 -130.041,-91.7056 -136.807,-184.9146 -3.758,-45.8528 -1.503,-60.8865 12.027,-91.7055 9.02,-21.0472 24.054,-45.1012 33.074,-54.8731 23.302,-25.5573 90.202,-69.9067 148.082,-99.2224 72.914,-36.0809 122.525,-71.4101 137.559,-96.2157 18.04,-31.5708 17.288,-110.4977 -1.504,-141.3168 -18.04,-30.0674 -57.88,-48.1078 -105.236,-48.1078 -72.161,0 -116.511,33.8258 -136.806,105.2359 -12.779,45.8528 -19.544,52.6179 -51.115,52.6179 -33.826,0 -60.886,-18.0404 -60.886,-40.591 0,-46.6044 42.094,-130.7932 81.933,-164.619 62.39,-52.618 190.928,-69.155 269.855,-35.3292 79.679,34.5775 129.29,115.0078 129.29,210.4718 0,103.7326 -47.356,162.364 -191.68,239.7876 -116.511,62.3898 -128.538,71.4101 -146.578,105.9876 -18.041,35.3292 -18.792,57.8797 -3.007,97.719 19.544,48.1079 76.672,74.4169 130.793,60.1349 41.343,-11.2753 73.665,-40.591 83.437,-77.4236 12.779,-43.5977 33.074,-60.1348 66.9,-54.1213 49.611,9.7719 55.625,28.564 30.819,93.9606 -19.544,51.8663 -47.356,85.6921 -87.947,109.746 -45.853,27.0607 -145.075,33.0742 -202.203,12.7787 z m -5472.2683,-2.2551 -157.1022,-3.7584 -9.7719,-18.7921 c -11.2753,-21.7989 -6.7652,-52.618 10.5236,-65.3966 8.2685,-6.7652 41.3427,-9.7719 97.7191,-9.7719 h 85.6921 l -0.7517,-294.6606 c -0.7517,-412.6751 -1.5034,-386.3662 12.0269,-399.8965 13.5304,-14.282 70.6584,-16.5371 84.1888,-3.0067 6.7651,6.7651 9.0202,95.464 9.0202,353.292 v 344.2718 h 83.437 c 101.4775,0 112.0011,4.5101 112.0011,48.8595 0,48.1078 -15.7854,57.1281 -101.4775,54.873 -36.8325,-0.7517 -138.31,-3.7584 -225.5055,-6.0135 z m 523.9245,2.2551 c -63.1415,-2.2551 -69.9067,-4.5101 -81.182,-21.0472 -10.5236,-15.7854 -11.2752,-63.1416 -10.5236,-388.6212 0,-281.8819 2.2551,-372.8358 9.772,-378.8493 6.0134,-6.0135 71.41,-10.5236 194.6864,-14.282 181.1561,-5.2618 185.6662,-4.5101 200.6999,10.5236 20.2955,20.2955 20.2955,56.3763 0,76.6718 -15.0337,15.0337 -21.7988,15.7854 -156.3505,13.5304 l -139.8134,-3.0068 v 131.5449 131.5449 l 113.5044,3.7585 c 126.2831,4.5101 138.3101,8.2685 138.3101,49.6112 0,44.3494 -9.7719,48.1078 -139.8134,48.1078 h -115.7595 v 119.518 118.7662 l 143.5718,3.7584 c 78.1753,2.2551 145.8269,6.7652 149.5854,10.5236 15.7853,15.7854 16.537,51.8663 2.255,69.9067 -14.282,17.2888 -18.7921,18.0405 -127.0348,19.5438 -61.6382,0.7517 -143.5718,0 -181.9078,-1.5033 z m 468.2999,-5.2618 c -14.2821,-9.7719 -14.2821,-24.8056 -13.5304,-395.3864 0.7517,-222.4988 3.7585,-387.8695 7.5169,-391.6279 3.7584,-3.7585 85.6921,-9.0203 181.1561,-12.027 154.0954,-3.7584 176.646,-3.0067 193.1831,8.2685 15.0337,9.7719 18.7921,18.7922 18.7921,42.0944 0,48.8595 -11.2753,52.618 -166.8741,52.618 h -133.8 l -1.5033,73.6651 c -0.7517,39.8393 0,193.1831 0.7517,339.7617 3.0067,244.2976 1.5033,268.3516 -9.7719,280.3785 -15.7854,15.7854 -56.3764,16.5371 -75.9202,2.2551 z m 632.9188,3.0067 c -101.4775,-3.0067 -121.0213,-6.0135 -128.5381,-16.5371 -7.5169,-10.5235 -10.5236,-84.9404 -13.5304,-300.674 -3.7584,-337.5066 0,-451.7628 16.5371,-467.5481 9.0202,-9.7719 43.5977,-11.2753 198.4449,-12.7787 106.7393,0 189.4246,2.2551 193.1831,6.0135 4.5101,4.5101 9.0202,19.5438 11.2752,33.8258 3.7585,21.7989 1.5034,30.0674 -12.0269,43.5978 -16.5371,16.537 -20.2955,17.2887 -157.1022,14.282 l -139.8135,-3.0068 -2.255,133.8 -1.5034,133.0483 h 112.7528 c 63.8932,0 120.2696,3.7584 128.5381,7.5168 10.5236,6.0135 14.2821,15.7854 14.2821,39.8393 0,18.0405 -3.7585,36.0809 -9.0203,41.3427 -6.0134,6.0135 -45.1011,9.0202 -127.7864,9.0202 h -118.7663 v 119.518 118.7662 l 143.5719,3.7584 c 92.4573,3.0068 146.5786,7.5169 151.8404,12.7787 13.5303,13.5303 9.0202,69.155 -6.7652,81.182 -14.282,10.5236 -29.3157,10.5236 -253.3179,2.255 z m 439.7358,2.2551 c -9.0202,-1.5034 -20.2955,-9.7719 -24.0539,-17.2888 -8.2685,-15.0337 -12.027,-295.4122 -9.0202,-606.6099 1.5033,-178.901 3.0067,-182.6595 53.3696,-182.6595 51.1146,0 49.6112,-9.0202 47.3562,318.7145 -1.5034,161.6123 -0.7517,291.6539 1.5033,289.3988 2.2551,-2.2551 17.2888,-39.0876 33.8259,-82.6854 68.4033,-180.4044 130.0415,-326.983 141.3168,-335.2515 21.0472,-15.7854 60.8865,-12.027 80.4303,7.5168 15.0337,15.0337 145.8269,329.9898 159.3572,384.8628 2.2551,10.5236 6.7652,18.7921 9.7719,18.7921 2.2551,0 3.7585,-130.7932 2.2551,-290.9021 -3.0067,-328.4864 -6.0135,-310.446 56.3764,-310.446 24.0539,0 33.8258,3.7585 39.8393,14.2821 12.027,23.3022 9.7719,750.9334 -2.2551,774.9873 -7.5168,15.7854 -15.7854,18.7921 -46.6044,21.0472 -22.5506,1.5034 -42.8461,-1.5034 -49.6113,-7.5169 -20.2955,-15.7853 -202.2033,-440.4874 -202.2033,-471.3065 0,-19.5438 -13.5303,-6.0135 -22.5505,23.3022 -9.0202,30.8191 -98.4708,252.5662 -153.3438,381.1044 -15.0337,35.3292 -30.8191,66.1483 -36.0809,69.9067 -9.7719,6.0135 -49.6112,6.7652 -79.6786,0.7517 z m 936.5997,-7.5169 c -16.5371,-20.2955 -21.7989,-34.5775 -112.0011,-355.547 -28.564,-101.4775 -66.9,-236.0292 -85.6921,-299.1707 -39.8393,-136.055 -39.0876,-144.3236 18.7921,-144.3236 21.0472,0 40.591,4.5102 47.3562,10.5236 5.2618,6.0135 19.5438,50.3629 31.5708,99.9742 11.2752,48.8595 24.0539,94.7123 27.8123,102.2291 5.2618,10.5236 17.2888,12.7787 79.6786,12.027 39.8393,-0.7517 94.7123,-3.0067 121.0213,-6.0135 l 47.3562,-4.5101 27.8123,-94.7123 c 15.034,-52.618 31.571,-100.7258 37.584,-107.491 20.296,-24.0539 98.471,-10.5236 98.471,17.2888 0,6.0134 -61.638,220.2437 -127.035,440.4874 -16.537,54.1214 -43.5975,146.5786 -60.8862,206.7134 -18.0405,60.1349 -35.3292,115.0079 -39.0877,122.5247 -5.2618,9.7719 -16.537,12.7787 -54.1213,12.7787 -36.0809,0 -50.3629,-3.0068 -58.6314,-12.7787 z m 64.6449,-155.5988 c 3.0067,-14.282 21.7989,-88.6988 42.0944,-165.3707 21.0471,-76.6719 37.5842,-145.0752 37.5842,-151.0887 0,-9.7719 -15.0337,-11.2753 -93.9606,-11.2753 -51.8663,0 -93.9607,2.255 -93.9607,6.0135 0.7517,3.0067 10.5236,40.591 23.3023,84.1887 12.0269,43.5977 33.0741,121.773 45.8528,174.391 13.5303,52.6179 26.3089,93.9606 29.3157,91.7055 3.0067,-1.5033 7.5168,-14.282 9.7719,-28.564 z m 1011.0167,154.0955 -18.04,-14.2821 v -379.6009 c 0,-309.6943 1.503,-381.1044 10.523,-390.8763 13.531,-17.2888 70.659,-17.2888 84.189,0 8.268,9.0202 11.275,54.1213 14.282,185.6662 l 3.758,173.6393 133.8,2.255 133.049,1.5034 v -175.1426 c 0,-160.8606 1.503,-176.646 13.53,-187.9213 17.289,-15.7854 60.886,-16.5371 81.182,-2.2551 13.53,9.7719 14.282,23.3023 16.537,197.6932 1.503,102.2292 0.752,275.1168 -2.255,384.1111 -6.014,220.2438 -6.014,219.4921 -56.376,219.4921 -49.612,0 -52.618,-9.7719 -52.618,-185.6663 v -152.592 h -134.552 -135.303 l -2.255,158.6055 c -2.256,146.5786 -3.007,159.3573 -16.538,169.1292 -21.047,15.0337 -51.866,12.7786 -72.913,-3.7584 z m 643.442,-0.7517 c -12.778,-14.282 -14.282,-35.3292 -16.537,-269.1033 -3.006,-275.8684 2.255,-340.5134 32.323,-407.4133 45.101,-98.4708 136.055,-144.3236 257.076,-127.0348 107.491,15.0337 166.123,78.1752 190.177,202.2033 13.53,71.4101 12.026,562.2604 -2.256,591.5762 -13.53,27.8123 -57.128,33.8258 -81.182,9.7719 -15.033,-15.0337 -15.785,-21.0472 -14.282,-291.6539 0.752,-180.4044 -2.255,-286.392 -7.516,-305.9358 -19.544,-71.4101 -61.639,-108.9943 -123.277,-108.9943 -50.363,0 -85.692,18.7921 -110.497,57.8797 -36.081,56.3764 -40.591,105.9876 -35.33,383.3594 5.262,243.546 4.51,251.0629 -9.772,265.3449 -20.295,20.2955 -60.886,19.5438 -78.927,0 z" />
    <path
       d="m 5636.1562,4755.3254 c -17.6364,-1.5928 -53.5506,-7.6456 -80.1657,-12.7426 -155.8418,-31.5378 -297.254,-107.6742 -410.4479,-220.7641 -132.1129,-131.885 -208.4306,-284.7952 -237.9315,-475.6144 -8.3373,-55.1115 -7.696,-189.545 1.6033,-247.842 23.4083,-146.8575 78.883,-275.2382 170.5924,-393.4251 28.2183,-36.3162 96.84,-105.1258 134.6782,-134.7523 102.2914,-80.5963 224.4638,-137.9376 346.9568,-162.7854 55.7953,-11.1497 93.3128,-14.6541 160.3313,-14.6541 85.9376,0 150.7113,10.1942 230.2356,35.6792 269.3564,86.649 475.2218,300.4047 549.9361,571.1834 56.4366,205.1544 32.7075,430.0598 -65.7357,618.9676 -121.5311,233.1881 -340.2229,389.921 -602.8455,432.2899 -37.5175,6.0527 -153.2766,8.6011 -197.2074,4.4599 z m 173.1578,-23.5736 c 82.4102,-9.557 177.9676,-38.5462 256.5299,-77.7295 264.5465,-133.1592 430.9704,-395.655 442.8348,-699.5641 7.0546,-172.3425 -40.0828,-339.9066 -135.6403,-483.2599 -131.1508,-197.509 -354.6525,-332.8983 -587.4535,-356.1534 -184.3809,-18.1581 -379.6644,39.5018 -543.2022,161.1929 -38.4795,28.6707 -120.8897,109.9041 -148.4667,146.2203 -98.4433,129.9737 -153.2766,268.8671 -168.3478,426.8744 -4.8099,50.0142 -2.2446,151.9544 5.1306,199.1017 12.5059,83.4636 38.4794,165.3342 76.9589,243.7007 37.5176,76.4551 83.3722,141.7604 143.0156,203.5617 123.7757,128.6994 295.6506,215.03 470.0911,236.0552 48.0993,5.734 138.5262,5.734 188.5496,0 z" />
    <path
       d="m 5646.4652,4316.6774 c -53.7195,-6.428 -89.9915,-12.3968 -120.7541,-20.2022 -81.727,-21.5796 -144.1701,-65.6571 -168.5046,-119.8357 -19.2839,-42.2409 -19.743,-83.1045 -2.7548,-247.0177 7.8055,-74.3808 16.9882,-203.3994 21.1205,-286.963 9.6419,-207.0724 12.3968,-235.9982 27.5484,-266.3016 13.7743,-28.4667 44.0775,-57.3926 78.0539,-74.3808 151.9756,-77.5948 409.0944,-62.9022 510.5645,28.0076 29.8441,27.0893 43.6185,57.8518 45.9141,103.7659 2.7548,51.4237 11.0194,254.823 12.8559,328.2856 1.3775,34.8946 6.428,117.0807 11.4786,181.8197 11.4785,147.3841 11.4785,183.6563 0.9182,219.0102 -22.0387,69.3302 -74.8399,110.1937 -176.7692,136.3647 -67.9528,16.9881 -176.7692,25.2527 -239.6714,17.4473 z m 169.4229,-35.813 c 90.4508,-13.3151 145.0886,-35.3538 184.5747,-73.9216 30.3031,-29.3851 38.5677,-54.6378 38.5677,-116.6218 0,-56.0151 -5.0506,-115.2443 -9.1828,-112.4894 -1.8366,1.3774 -4.5913,11.0194 -6.428,21.5796 -5.5096,33.5172 -29.3849,99.1744 -45.914,124.427 -36.2722,57.3927 -90.9099,82.6454 -146.0068,67.4937 -22.9571,-6.4279 -41.3226,-22.957 -71.1668,-62.9022 -32.599,-44.0775 -37.1904,-44.0775 -84.4819,0.4592 -46.8323,44.5366 -76.2174,58.77 -117.0809,58.77 -38.5677,-0.4592 -80.8087,-19.284 -105.1432,-48.2099 -30.7625,-35.3537 -56.4743,-95.9604 -64.7388,-152.4346 -3.214,-22.0388 -3.6732,-22.4979 -7.3463,-9.1828 -2.2957,7.8054 -5.0505,44.0775 -6.8871,80.8088 -3.214,82.1861 1.8366,101.9292 36.2721,139.5787 38.1088,41.7818 113.4078,73.0034 203.3994,84.482 52.342,6.4279 151.5164,5.5096 201.5627,-1.8367 z m 100.0927,-133.6099 c 43.1593,-30.3033 71.1669,-99.1744 90.9099,-224.5198 13.7742,-84.4819 16.0699,-112.4895 10.1011,-112.4895 -2.7549,0 -6.428,2.2957 -8.2646,5.0506 -5.9688,10.101 -41.3225,22.4978 -65.1979,22.4978 -59.2292,0 -107.4389,-46.3732 -107.4389,-105.1432 -0.4592,-44.5367 23.4161,-82.6453 64.2797,-101.4701 17.4473,-8.2645 27.0892,-9.6419 51.8828,-8.2645 17.4473,1.3774 34.8948,5.5097 41.3227,10.1011 5.9689,4.1323 12.3968,7.3463 14.2334,7.3463 5.0506,0 4.5914,-148.3025 -0.9183,-201.1037 -5.0506,-54.1786 -16.5291,-75.2991 -55.0969,-101.011 -105.1432,-70.2485 -331.0405,-74.8399 -455.4676,-9.1827 -33.0581,17.4473 -65.6572,51.8829 -72.0851,75.299 -5.9689,23.8753 -8.7237,61.0657 -14.2334,194.6757 -2.7548,61.9841 -6.8871,138.2013 -9.1828,169.882 -4.1323,53.7195 -3.6731,63.8206 9.1828,148.3025 15.1517,101.9293 20.6613,122.5905 40.4044,162.0767 24.7936,47.7505 57.8517,74.3808 98.2562,78.5131 34.4355,3.673 60.6064,-8.7238 101.47,-48.6689 34.4356,-32.5991 55.556,-46.3733 72.0851,-46.3733 22.0388,0 42.241,15.1516 62.9023,46.8323 11.0193,16.9882 28.0076,36.2721 37.1904,43.1592 14.6925,10.1013 20.6613,11.4786 45.455,10.1013 22.957,-1.3776 32.599,-4.5916 48.2097,-15.6109 z m 67.0346,-342.0599 c 33.9764,-16.5291 52.8011,-57.8517 42.7001,-94.5829 -11.0194,-41.3227 -40.4045,-65.6571 -80.3496,-65.6571 -25.7119,0 -42.7002,6.428 -59.2293,22.0388 -19.743,18.3655 -26.1709,34.4354 -26.1709,62.9022 0,28.4667 6.4279,44.5367 26.1709,62.9023 25.2528,24.3343 62.4432,28.9259 96.8788,12.3967 z m -468.7828,44.5367 c -52.3419,-14.2333 -90.4506,-63.8206 -90.4506,-116.6217 0,-66.1162 53.2602,-120.2949 117.5399,-120.2949 36.2722,0 58.7701,7.8054 82.1863,28.4668 52.342,46.3732 56.4743,119.8357 9.1828,172.6368 -31.2216,34.4356 -74.84,47.7506 -118.4584,35.813 z m 58.311,-22.0388 c 25.2527,-7.8053 60.1474,-41.7818 66.5754,-65.657 6.4279,-24.3345 6.4279,-33.0581 -1.8366,-60.6067 -14.2333,-47.7506 -69.3303,-78.513 -117.0808,-65.657 -40.8636,11.0193 -73.4626,56.4742 -73.4626,101.0109 0.4591,34.8947 32.1399,77.1356 67.0346,89.5324 22.4979,8.2646 34.8947,8.2646 58.77,1.3774 z m -58.77,-70.2484 c -4.1324,-4.1324 -7.3464,-13.3152 -7.3464,-20.2023 0,-28.4667 36.7313,-37.6495 50.5055,-12.856 5.9689,11.0195 5.9689,13.7744 0,25.2529 -8.7236,15.1516 -31.6806,19.2838 -43.1591,7.8054 z m 376.0362,-206.6135 c -90.9099,-21.1203 -195.5939,-25.7118 -293.8501,-13.7741 -111.5712,13.7741 -110.6529,13.7741 -117.0808,2.7548 -8.2646,-16.0699 5.0505,-53.2603 29.8441,-81.727 74.8399,-85.4002 218.0919,-112.0304 326.9082,-61.5248 58.77,28.0074 114.3261,98.256 110.6529,140.9561 -1.3774,16.07 -2.7548,17.9065 -15.1516,18.8248 -7.3463,0.4591 -26.1711,-2.2958 -41.3227,-5.5098 z m 25.2527,-30.7623 c 0,-9.642 -27.5484,-48.6689 -47.2914,-66.5755 -22.0388,-20.2021 -52.3421,-36.272 -87.2367,-45.4549 -28.0076,-7.3462 -97.338,-8.2645 -127.1821,-1.3773 -29.8441,6.887 -81.727,33.0581 -104.684,52.342 -17.4474,15.1516 -45.9141,55.5559 -41.7818,59.6882 0.9183,0.9183 20.6613,-1.8365 43.1592,-5.9687 31.2216,-5.5098 70.2485,-7.3464 158.4035,-6.8872 100.0926,0 123.0497,1.3774 158.4035,9.1828 22.9571,5.5098 42.7002,9.642 44.9958,10.1011 1.8367,0 3.214,-1.8365 3.214,-5.0505 z m 34.8948,232.3252 c -10.1012,-9.642 -9.183,-26.1711 1.8365,-36.2721 21.1204,-18.8248 53.2603,13.315 34.4355,34.4355 -10.1011,11.0194 -26.6302,11.9376 -36.272,1.8366 z" />
  </g>
  <g
     transform="matrix(0.20252393,0,0,-0.20252393,-985.52964,972.71352)"
     class="logo-accent"
     stroke="none">
    <path
       d="m 8445.6215,3770.1424 c -51,-11 -101,-47 -131,-97 -91,-150 -62,-401 54,-476 76,-50 174,-46 239,9 17,14 43,49 58,77 25,48 27,59 27,182 0,126 -1,132 -31,190 -47,89 -128,132 -216,115 z m 107,-114 c 42,-42 55,-90 55,-202 -1,-142 -40,-208 -125,-208 -88,0 -125,65 -125,223 0,156 36,220 123,220 31,0 46,-7 72,-33 z m -1777,106 c -14,-2 -31,-10 -37,-17 -8,-9 -10,-102 -9,-292 l 3,-279 29,-3 c 16,-2 33,1 38,6 6,6 10,54 9,107 -1,61 3,102 10,111 14,17 83,18 96,2 5,-7 18,-35 28,-63 10,-27 31,-76 47,-107 23,-47 33,-58 52,-58 20,0 56,22 56,34 0,1 -22,51 -50,111 l -49,110 30,27 c 96,88 69,262 -45,297 -37,11 -170,20 -208,14 z m 199,-108 c 27,-31 30,-82 8,-125 -16,-31 -25,-35 -98,-45 -69,-9 -77,1 -77,95 0,113 0,114 79,107 55,-4 69,-9 88,-32 z m 313,105 c -14,-4 -20,-9 -15,-9 6,-1 5,-5 -2,-9 -8,-5 -13,-83 -17,-260 -5,-235 0,-305 21,-300 5,0 15,-2 24,-6 8,-4 73,-5 143,-4 119,3 130,5 143,24 12,19 12,24 -2,38 -13,13 -38,16 -121,16 -103,0 -105,0 -114,26 -6,14 -8,51 -6,82 2,32 5,63 5,70 1,8 26,12 89,12 48,0 93,4 100,9 8,5 12,21 10,37 l -3,29 -96,3 -96,3 -7,58 c -4,32 -2,70 3,84 10,26 12,26 123,29 111,3 113,3 116,27 6,43 -19,51 -152,50 -67,-1 -132,-5 -146,-9 z m 500,3 c -39,-16 -40,-24 -40,-297 0,-181 3,-266 11,-266 5,0 8,-4 4,-9 -9,-16 58,-24 153,-19 143,7 212,63 212,173 0,51 -10,77 -47,117 l -25,27 20,33 c 60,100 17,214 -90,237 -52,12 -173,13 -198,4 z m 208,-97 c 10,-10 17,-33 17,-57 0,-61 -37,-89 -116,-89 -49,0 -59,3 -60,18 -2,44 3,137 8,146 9,14 133,0 151,-18 z m 28,-259 c 27,-32 30,-66 9,-106 -18,-35 -60,-51 -136,-51 h -59 v 88 c 0,49 3,92 8,96 4,4 40,6 81,4 65,-3 76,-6 97,-31 z m 884,356 c -50,-10 -50,-8 -50,-297 0,-198 3,-275 12,-284 16,-16 55,-15 65,1 4,6 10,59 13,117 l 5,105 h 45 45 l 57,-117 c 54,-112 59,-118 87,-118 50,0 49,32 -4,150 l -46,103 24,26 c 47,51 60,80 61,139 0,70 -21,113 -72,147 -30,20 -53,25 -127,29 -49,2 -101,2 -115,-1 z m 169,-84 c 35,-13 61,-53 61,-97 0,-63 -73,-110 -150,-97 -32,5 -40,11 -41,28 -2,43 3,162 8,170 7,11 86,8 122,-4 z m 329,80 c -17,-9 -18,-34 -18,-293 0,-250 2,-285 16,-290 24,-9 52,-7 59,4 3,5 8,90 10,187 2,98 4,185 4,193 1,9 4,10 10,5 12,-13 91,-155 148,-268 25,-49 54,-98 64,-108 27,-27 67,-25 78,4 4,12 8,140 8,284 0,291 -2,306 -54,288 l -28,-10 -3,-195 c -2,-165 -4,-191 -16,-174 -17,24 -54,90 -129,229 -82,152 -103,171 -149,144 z" />
    <path
       d="m 5656.9234,4659.0724 c -74.3985,-11.4459 -153.3753,-51.5066 -211.1773,-106.7332 -14.5936,-13.7351 -17.7412,-24.8949 -9.4429,-31.7624 6.5815,-5.4368 15.7382,-1.4307 32.9071,14.8797 18.8857,18.0272 37.1992,32.907 51.2205,41.4914 81.5521,49.2175 157.9537,67.5309 238.9336,56.6574 79.8353,-10.5875 140.4986,-37.4855 199.7313,-88.7059 33.1932,-28.9009 32.6209,-28.6149 40.9191,-24.895 7.1538,3.1477 8.8707,9.7291 5.4369,19.172 -2.8615,7.1537 -44.0669,41.7776 -70.6785,59.2326 -66.9587,44.353 -137.6372,65.5279 -216.328,64.9557 -19.7442,-0.2862 -47.5006,-2.0031 -61.5218,-4.2923 z m 31.7624,-113.0285 c -41.4915,-4.0061 -97.5764,-25.7533 -129.6251,-50.0759 -28.0424,-21.1749 -46.3559,-39.7746 -46.9282,-47.5006 0,-3.1475 10.8737,-13.735 14.3073,-13.735 1.4308,0 11.1599,7.7259 21.7473,17.1688 37.7716,34.3378 88.7059,59.805 132.4866,66.1002 28.901,4.0061 77.8322,2.003 101.8687,-4.5783 35.4823,-9.7291 81.5521,-36.627 113.6008,-66.1002 7.4398,-6.8676 14.8796,-12.5905 16.5965,-12.5905 4.0061,0 14.3074,10.5875 14.3074,14.8796 0,4.8645 -35.7684,39.2023 -52.6512,50.362 -54.9404,36.9132 -119.0377,52.9375 -185.7101,46.0699 z m -4.2922,-115.6038 c -38.63,-8.2983 -90.709,-45.7837 -88.7059,-63.5248 0.5723,-6.8676 2.2892,-8.2983 10.3013,-8.8706 7.1537,-0.8585 11.1599,0.8584 18.5997,8.2983 28.0425,28.3286 63.811,41.4914 104.7301,38.9161 30.904,-2.003 55.2266,-12.5905 80.9799,-35.4823 9.1568,-8.2983 17.7412,-15.1659 18.8858,-15.1659 5.4368,0 14.8797,9.4428 14.8797,14.5936 0,9.729 -29.1871,35.1961 -55.2265,48.0728 -34.3378,17.1689 -67.2449,21.1749 -104.4441,13.1628 z" />
  </g>
</svg>
